<svg xmlns="http://www.w3.org/2000/svg" width="800" height="184" viewBox="0 0 800 184" role="img" aria-labelledby="title desc" color="#242421">
  <title id="title">Inkstone · 砚</title>
  <desc id="desc">Inkstone desktop AI workspace. Canonical prompt-stone symbol and outlined wordmark. Transparent background.</desc>
  <g transform="translate(85.6657 1.6774) scale(1.8065)"><g id="stone-frame" fill="none" stroke="currentColor" stroke-width="6" stroke-linejoin="round" xmlns="http://www.w3.org/2000/svg"><path d="M70 22H25Q22 22 22 25V75Q22 78 25 78H75Q78 78 78 75V53" /></g><g id="prompt" fill="none" stroke="currentColor" stroke-width="6" stroke-linecap="square" stroke-linejoin="miter" xmlns="http://www.w3.org/2000/svg"><path d="M36 40L47 50L36 60" /><path d="M57 62H69" /></g></g>
  <path transform="translate(267.9883 51)" fill="currentColor" fill-rule="evenodd" d="M13.0455 80.7221L0 80.7221L0 4.3662L13.0455 4.3662ZM79.0182 80.7221L66.6649 80.7221L66.6649 49.9987C66.6649 39.8108 63.0619 34.7169 55.8558 34.7169C52.0931 34.7169 48.987 36.1279 46.5377 38.95C44.0883 41.7721 42.8636 45.3307 42.8636 49.626L42.8636 80.7221L30.4571 80.7221L30.4571 26.1974L42.8636 26.1974L42.8636 35.2494L43.0766 35.2494C47.1589 28.3628 53.0515 24.9195 60.7545 24.9195C66.6827 24.9195 71.2087 26.8452 74.3325 30.6968C77.4563 34.5483 79.0182 40.1126 79.0182 47.3896ZM143.5532 80.7221L127.8987 80.7221L106.7065 54.5247L106.4935 54.5247L106.4935 80.7221L94.087 80.7221L94.087 0L106.4935 0L106.4935 51.1701L106.7065 51.1701L126.7273 26.1974L141.5831 26.1974L119.0597 52.5013ZM147.9195 79.0182L147.9195 67.5701C152.5342 71.0844 157.6281 72.8416 163.2013 72.8416C170.6558 72.8416 174.3831 70.6407 174.3831 66.239C174.3831 64.9965 174.0636 63.9405 173.4247 63.0708C172.7857 62.2011 171.9249 61.429 170.8422 60.7545C169.7595 60.0801 168.4816 59.4766 167.0084 58.9442C165.5353 58.4117 163.8935 57.8082 162.0831 57.1338C159.8468 56.2463 157.8322 55.3056 156.0396 54.3117C154.247 53.3177 152.756 52.1907 151.5669 50.9305C150.3777 49.6703 149.4814 48.2416 148.8779 46.6442C148.2745 45.0468 147.9727 43.1831 147.9727 41.0532C147.9727 38.4264 148.5939 36.1102 149.8364 34.1045C151.0788 32.0989 152.7472 30.4128 154.8416 29.0461C156.9359 27.6794 159.3143 26.65 161.9766 25.9578C164.6389 25.2656 167.39 24.9195 170.2299 24.9195C175.2706 24.9195 179.7788 25.6827 183.7545 27.2091L183.7545 38.0182C179.9208 35.3913 175.519 34.0779 170.5494 34.0779C168.9874 34.0779 167.5764 34.2377 166.3162 34.5571C165.056 34.8766 163.9822 35.3203 163.0948 35.8883C162.2073 36.4563 161.5151 37.1396 161.0182 37.9383C160.5212 38.737 160.2727 39.6156 160.2727 40.574C160.2727 41.7455 160.5212 42.7394 161.0182 43.5558C161.5151 44.3723 162.2517 45.0911 163.2279 45.7123C164.2041 46.3335 165.3755 46.9015 166.7422 47.4162C168.1089 47.9309 169.6796 48.49 171.4545 49.0935C173.7974 50.0519 175.9006 51.0281 177.7643 52.0221C179.6279 53.016 181.2164 54.1431 182.5299 55.4032C183.8433 56.6634 184.855 58.1188 185.5649 59.7695C186.2749 61.4201 186.6299 63.3814 186.6299 65.6532C186.6299 68.4221 185.9909 70.8359 184.713 72.8948C183.4351 74.9537 181.7312 76.6576 179.6013 78.0065C177.4714 79.3554 175.0132 80.3582 172.2266 81.0149C169.44 81.6716 166.5026 82 163.4143 82C157.4506 82 152.2857 81.0061 147.9195 79.0182ZM227.0974 80.1364C224.6835 81.3433 221.5065 81.9468 217.5662 81.9468C206.9879 81.9468 201.6987 76.8706 201.6987 66.7182L201.6987 35.8883L192.5935 35.8883L192.5935 26.1974L201.6987 26.1974L201.6987 13.5779L214.0519 10.0636L214.0519 26.1974L227.0974 26.1974L227.0974 35.8883L214.0519 35.8883L214.0519 63.1506C214.0519 66.3809 214.6377 68.6883 215.8091 70.0727C216.9805 71.4571 218.9329 72.1494 221.6662 72.1494C223.7606 72.1494 225.571 71.5459 227.0974 70.339ZM261.2818 82C252.8688 82 246.1509 79.453 241.1279 74.3591C236.105 69.2651 233.5935 62.5117 233.5935 54.0987C233.5935 44.9403 236.2115 37.7874 241.4474 32.6403C246.6833 27.4931 253.7385 24.9195 262.613 24.9195C271.1324 24.9195 277.7705 27.4221 282.5273 32.4273C287.284 37.4325 289.6623 44.3723 289.6623 53.2468C289.6623 61.9437 287.0976 68.9102 281.9682 74.1461C276.8387 79.382 269.9433 82 261.2818 82ZM261.8675 34.7701C257.0398 34.7701 253.2238 36.4563 250.4195 39.8286C247.6151 43.2009 246.213 47.8511 246.213 53.7792C246.213 59.4944 247.6329 63.9937 250.4727 67.2773C253.3125 70.5608 257.1108 72.2026 261.8675 72.2026C266.7307 72.2026 270.4669 70.5874 273.076 67.3571C275.685 64.1268 276.9896 59.5299 276.9896 53.5662C276.9896 47.5671 275.685 42.9346 273.076 39.6688C270.4669 36.403 266.7307 34.7701 261.8675 34.7701ZM350.7896 80.7221L338.4364 80.7221L338.4364 49.9987C338.4363 39.8108 334.8333 34.7169 327.6273 34.7169C323.8645 34.7169 320.7584 36.1279 318.3091 38.95C315.8597 41.7721 314.6351 45.3307 314.6351 49.626L314.6351 80.7221L302.2286 80.7221L302.2286 26.1974L314.6351 26.1974L314.6351 35.2494L314.8481 35.2494C318.9303 28.3628 324.8229 24.9195 332.526 24.9195C338.4541 24.9195 342.9801 26.8452 346.1039 30.6968C349.2277 34.5483 350.7896 40.1126 350.7896 47.3896ZM412.0234 56.8143L374.8571 56.8143C374.9991 61.855 376.5522 65.742 379.5162 68.4753C382.4803 71.2087 386.5537 72.5753 391.7364 72.5753C397.558 72.5753 402.9004 70.8359 407.7636 67.3571L407.7636 77.3143C402.7939 80.4381 396.2268 82 388.0623 82C380.0398 82 373.7478 79.524 369.1864 74.5721C364.6249 69.6201 362.3442 62.6537 362.3442 53.6727C362.3442 45.1887 364.8556 38.2755 369.8786 32.9331C374.9015 27.5907 381.1403 24.9195 388.5948 24.9195C396.0494 24.9195 401.8177 27.3156 405.9 32.1078C409.9822 36.9 412.0234 43.5558 412.0234 52.0753ZM400.0961 48.0818C400.0606 43.6446 399.0134 40.1924 396.9545 37.7253C394.8957 35.2582 392.0558 34.0247 388.4351 34.0247C384.8853 34.0247 381.8768 35.3203 379.4097 37.9117C376.9426 40.503 375.4251 43.8931 374.8571 48.0818Z"/>
</svg>